<svg width="72" height="64" viewBox="0 0 72 64" fill="none" xmlns="http://www.w3.org/2000/svg">
<g clip-path="url(#clip0_1576_1832)">
<path d="M2.13548 0C2.13548 0 6.79962 10.3659 26.4921 17.3702C40.5571 22.3812 54.0848 24.28 49.244 34.4401C48.6945 35.6317 47.6441 37.7824 46.8671 38.6979C46.0902 39.6134 46.7751 40.5749 47.9636 39.0636C49.152 37.5523 52.4462 34.8083 53.1336 32.7932C53.821 30.7781 54.414 28.1697 52.8576 26.2539L60.3609 23.4614C60.3609 23.4614 65.9884 20.7973 67.6802 23.7351C67.9078 23.6915 73.9007 21.8605 71.3859 27.3971C71.3859 27.3971 70.6065 26.2999 69.0526 27.2615C67.4987 28.223 61.2758 32.706 56.2002 38.5647C51.1246 44.4234 46.6856 49.7783 35.709 51.5633C35.709 51.5633 47.281 43.8736 43.5294 34.2173C43.1179 33.4907 42.8202 34.583 42.8202 35.5445C42.8202 36.506 41.0146 43.2342 39.1896 41.7229C38.9136 41.4953 38.4102 37.8793 30.3163 37.0558C26.0613 36.6441 19.0179 36.1767 16.6386 33.1371C18.5604 33.3478 22.4476 33.7595 25.7878 32.1126C26.5139 31.6089 26.7704 31.0712 24.8196 31.1051C23.2212 31.115 21.6244 30.9992 20.0441 30.7588C17.3377 30.3866 14.684 29.6997 12.1366 28.7122C11.2397 28.3615 10.3616 27.9645 9.50564 27.523C9.06674 27.2954 8.63429 27.0532 8.2083 26.7964C7.98804 26.6657 7.76778 26.53 7.54995 26.392C7.47007 26.3387 6.94484 26.0771 7.18688 26.002C7.4993 25.9403 7.81947 25.9281 8.13568 25.9657C8.97799 26.0311 9.78883 26.2733 10.6239 26.3799C11.1612 26.4477 11.7058 26.4816 12.248 26.501C13.5752 26.5658 14.9055 26.4845 16.215 26.2588C16.9917 26.1398 17.7414 25.8849 18.4297 25.5055C20.487 24.2679 16.3723 24.4762 14.8959 24.1662C13.4194 23.8562 2.58084 21.6256 0.000679533 13.0107C-0.163908 12.3519 2.82046 14.8296 4.22672 15.5852C5.92101 16.3385 10.9506 18.5715 13.9689 17.748C13.935 17.4041 10.4714 16.2949 7.79441 13.5581C6.01056 11.8433 3.43766 10.642 2.13548 0Z" fill="white"/>
<path d="M61.8815 37.3804V39.9234C61.8815 43.2342 61.8936 46.6564 59.0158 50.0036C57.9786 51.2041 56.8653 52.3367 55.6829 53.3943C52.6916 56.0401 49.4066 58.3334 45.8923 60.229C43.598 61.4792 41.2324 62.5936 38.8077 63.5665L37.7597 64L36.7213 63.5302C33.3114 61.9441 29.9977 60.1585 26.7977 58.1825C19.6066 53.6922 15.6613 49.65 14.7803 45.8088C14.1825 43.5031 14.0155 38.9377 13.9961 38.4218H14.059C15.427 38.3782 16.7623 38.8447 17.8058 39.7309C18.8493 40.617 19.5265 41.8596 19.7058 43.2173C19.7613 43.6463 19.8422 44.0717 19.9479 44.4912L19.9745 44.6002C20.8676 48.6206 30.6437 54.7724 37.8856 58.197C39.7953 57.3881 41.6299 56.5017 43.3484 55.5644C46.5034 53.8652 49.453 51.8092 52.1394 49.4368C53.1519 48.5311 54.1043 47.5602 54.9906 46.5305C55.37 46.0995 55.6862 45.6168 55.9297 45.0967C57.29 42.1443 59.2239 39.4923 61.7726 37.4773L61.8815 37.3804Z" fill="white"/>
<path d="M58.5026 21.3445C59.6338 20.4421 60.5475 19.2964 61.176 17.9925C61.8045 16.6886 62.1316 15.2599 62.1332 13.8123V12.7296C62.1816 10.7097 60.756 9.99284 60.1412 9.77729C59.5101 9.58371 58.8445 9.52918 58.1903 9.61744H58.033H16.8594L22.1649 12.7999C24.5285 14.2122 27.23 14.9579 29.9829 14.9578H56.7986V22.5918H56.9438L58.5026 21.3445Z" fill="white"/>
</g>
<defs>
<clipPath id="clip0_1576_1832">
<rect width="72" height="64" fill="white"/>
</clipPath>
</defs>
</svg>
