<svg xmlns="http://www.w3.org/2000/svg" viewBox="0 0 512 512" fill="#d97706">
  <path d="M288 16c-4 0-8 2-12 5l-20 16c-4 3-9 5-14 6l-18 2c-6 1-11 3-15 7l-10 10c-4 4-9 7-14 8l-12 2c-6 1-11 4-15 8l-8 10c-4 5-6 11-6 17v8c0 6-2 12-5 17l-14 24c-4 7-6 14-6 22v6c0 6-1 13-4 18l-10 20c-4 8-5 17-4 26l4 18c1 6 1 12 0 18l-10 32c-3 10-3 20 0 30l10 32c2 8 2 16 0 24l-6 18c-2 8 0 16 4 24l18 28c4 6 10 10 16 12l14 4c4 2 8 4 10 8l10 14c5 8 14 13 24 13h4c6 0 12-2 16-6l14-14c4-4 10-7 16-7h14c8 0 15-3 20-8l18-18c4-4 8-10 10-16l4-18c1-6 4-12 8-16l22-28c5-6 8-14 8-22v-12c0-6 2-12 6-16l14-18c4-5 6-12 6-18v-22c0-8-2-15-7-22l-14-22c-3-5-4-10-4-16v-26c0-8-3-16-8-22l-14-18c-3-4-5-10-5-16v-18c0-8-3-16-8-22l-14-18c-4-5-9-8-16-10l-14-2c-4-1-8-4-10-8l-8-12c-4-6-10-10-18-10z"/>
</svg>
